<?xml version="1.0" encoding="UTF-8"?><svg id="b" xmlns="http://www.w3.org/2000/svg" width="11.3mm" height="11.3mm" viewBox="0 0 32 32"><g id="c"><polygon points="32 6.4 17.1 6.4 17.1 0 32 0 32 6.4" style="fill:#0f84bd;"/><polygon points="25.6 10.7 32 10.7 32 0 25.6 0 25.6 10.7" style="fill:#0f84bd;"/><polygon points="0 0 12.8 0 12.8 6.4 0 6.4 0 0" style="fill:#3abff0; fill-rule:evenodd;"/><polygon points="0 12.8 12.8 12.8 12.8 19.2 0 19.2 0 12.8" style="fill:#3abff0; fill-rule:evenodd;"/><polygon points="6.4 32 0 32 0 0 6.4 0 6.4 32" style="fill:#3abff0;"/><polygon points="32 19.2 17.1 19.2 17.1 12.8 32 12.8 32 19.2" style="fill:#262626;"/><polygon points="25.6 32 32 32 32 12.8 25.6 12.8 25.6 32" style="fill:#262626;"/><polygon points="12.8 25.6 32 25.6 32 32 12.8 32 12.8 25.6" style="fill:#262626;"/></g></svg>